<?xml version="1.0" encoding="utf-8"?>
<!-- Generator: Adobe Illustrator 24.1.2, SVG Export Plug-In . SVG Version: 6.00 Build 0)  -->
<svg version="1.1" xmlns="http://www.w3.org/2000/svg" xmlns:xlink="http://www.w3.org/1999/xlink" x="0px" y="0px"
	 viewBox="0 0 355.41 159.29" style="enable-background:new 0 0 355.41 159.29;" xml:space="preserve">
<style type="text/css">
	.st0{fill:#6FB2A5;}
</style>
<g id="BACKGROUND">
</g>
<g id="OBJECTS">
	<g>
		<path class="st0" d="M281.93,68.44c0.15,0.12,0.4,0.02,0.57-0.2c0,0,0,0,0.02,0.03c0.21,0.27,0.39-0.11,0.47-0.04
			c0.28,0.24,0.48,0.22,0.79,0.01c0.08-0.05,0.46,0.25,0.73,0.3c0.2,0.04,0.2,0.04,0.2,0.04c0.25-0.08,0.62-0.13,0.82-0.09
			c0.2,0.03,1.02,0.18,1.39,0.26c0,0,0,0,0.29-0.24c0.03-0.03,0.13-0.03,0.19-0.02c0.34,0.11,0.68,0.32,1.02,0.32
			c0.27,0,0.27,0,0.27,0c0.26-0.18,0.45-0.05,0.41,0.31c0,0,0,0,0.53-0.41c0.44-0.34,0.44-0.34,0.44-0.34
			c0.43,0.16,1.02,0.21,1.31,0.12c0.29-0.09,1.16,0.35,1.47,0.33c0.31-0.02,1.35,0.3,1.66,0.36c0,0,0,0-0.02-0.38
			c0-0.02,0.19-0.09,0.23-0.07c0.4,0.26,0.4,0.26,0.4,0.26c0.49-0.08,1.04-0.03,1.21,0.11c0.18,0.14,0.81-0.16,0.97-0.09
			c0.16,0.07,0.76,0.18,0.97,0.07c0.21-0.1,1.36-0.07,2.02-0.05c0,0,0,0,0.57,0.24c0.18,0.08,0.54-0.16,0.82-0.19
			c0.21-0.02,0.21-0.02,0.21-0.02c0.24,0.06,0.52,0.07,0.63,0c0,0,0,0,0.01,0.01c0.52,0.41,0.52,0.41,0.52,0.41
			c0.62-0.22,1.2-0.17,1.29,0.1c0.09,0.28,0.59,0.93,0.71,0.91s0.46-0.01,0.48,0.07c0.02,0.08-0.13,0.36-0.33,0.47
			c-0.2,0.11-0.22,0.98-0.55,1.44c0,0,0,0,0.11,0.57c0.03,0.13,0.03,0.13,0.03,0.13c-0.01,0.2-0.09,0.32-0.17,0.26
			c-0.08-0.06-0.31-0.07-0.39,0.08c0,0,0,0,0.01,0c0.57,0.23-0.1,0.61,0.17,0.87c0.03,0.03,0.03,0.12,0,0.15
			c-0.43,0.38-0.43,0.38-0.43,0.38c-0.02,0.29-0.48,0.61-1.03,0.71c0,0,0,0-0.49-0.37c-0.08-0.06-0.08-0.06-0.08-0.06
			c-0.32,0.13-0.83,0.25-1.14,0.26c-0.31,0.01-1.35-0.07-1.63-0.01c0,0,0,0-0.27,0c-0.26,0-0.26,0-0.26,0
			c-0.28-0.05-0.61-0.09-0.73-0.1c-0.12,0-0.58-0.03-0.73,0.01c-0.15,0.04-1.13,0.08-1.85,0.08c-0.72,0-2.95-0.02-3.37-0.07
			c-0.41-0.05-1.52,0.3-1.62,0.3c0,0,0,0-0.09,0.01c-0.54,0.04-0.54,0.04-0.54,0.04c-0.58-0.1-1.28-0.12-1.56-0.05
			c-0.27,0.07-1.15-0.15-1.38-0.12c-0.23,0.03-1.03,0.09-1.3,0.03c-0.27-0.06-1.59,0.08-2.22,0.09c0,0,0,0-0.59,0
			c-0.59,0-1.17,0-1.76,0c-0.36,0-0.93,0.11-1.04-0.02c-0.27-0.32-0.62,0.13-0.82-0.15c-0.04-0.05-0.25-0.06-0.37-0.04
			c-0.27,0.04-0.67,0.22-0.78,0.14c-0.39-0.29-0.39-0.29-0.39-0.29c-0.29,0.21-0.69,0.31-0.89,0.23c-0.2-0.08-0.63-0.12-0.86-0.19
			c-0.23-0.07-0.95,0.2-1.15,0.09s-0.91,0.26-1.14,0.3c-0.22,0.04-1.07-0.31-1.49-0.38c0,0,0,0-0.45,0.27
			c-0.32,0.19-0.32,0.19-0.32,0.19c-0.62-0.09-1.24-0.21-1.37-0.27c-0.13-0.06-0.72-0.14-1.04-0.19s-1.55,0.43-2.11,0.64
			c0,0,0,0-0.4-0.55c-0.04-0.05-0.31-0.06-0.38,0c-0.43,0.34-0.93-0.23-1.37,0.08c-0.14,0.1-0.41,0.14-0.6,0.12
			c-0.37-0.04-0.74-0.19-1.11-0.19c-0.32,0-0.32,0-0.32,0c-0.35,0.1-0.8,0.16-1,0.14s-0.92-0.04-1.09-0.12
			c-0.17-0.08-0.83,0.22-1.05,0.3c-0.22,0.08-0.81-0.26-1.02-0.18c-0.21,0.09-1.17,0.02-1.55-0.04c0,0,0,0-0.35,0
			c-0.34,0-0.68,0.1-1.02,0.1c-0.63-0.01-0.63-0.01-0.63-0.01c-0.69-0.08-1.81-0.14-2.49-0.12c0,0,0,0-0.57,0.16
			c-0.5,0.14-0.5,0.14-0.5,0.14c-0.51-0.1-1.4-0.17-1.99-0.15c0,0,0,0-0.54,0c-0.54,0-1.08,0-1.62,0c-0.54,0-1.08,0-1.62,0
			c-0.54,0-1.08,0-1.62,0s-1.08-0.02-1.62,0.01c-0.34,0.01-0.34,0.01-0.34,0.01c-0.37,0.08-0.72,0.15-0.79,0.17
			c-0.07,0.01-0.57-0.05-0.98-0.12c-0.41-0.07-2.7,0.1-2.87,0.05c-0.16-0.05-0.62-0.04-0.79-0.06s-1,0.15-1.44,0.17c0,0,0,0-0.41,0
			s-0.81,0-1.22,0c-0.45,0-0.9,0-1.35,0c-0.41,0-0.81,0-1.22,0s-0.81,0-1.22,0c-0.41,0-0.81,0-1.22,0s-0.41,0-0.41,0
			c-0.44,0.01-1.77,0.04-2.94,0.08c-1.17,0.04-4.62,0.28-5.06,0.43c0,0,0,0-0.13-0.1c-0.34-0.25-0.34-0.25-0.34-0.25
			c-0.23,0.16-0.69,0.15-1.02-0.01c0,0,0,0-0.42,0.26c-0.22,0.14-0.7,0.03-1.06,0.03c-0.59,0-0.59,0-0.59,0
			c-0.64-0.01-1.39,0.04-1.67,0.1c-0.27,0.06-1.25-0.18-1.54-0.35c0,0,0,0-0.21,0.26c-0.3,0.38-0.3,0.38-0.3,0.38
			c-0.24-0.21-0.7-0.35-1.03-0.31s-1.4,0.11-1.66,0.1c-0.25-0.02-1.26,0.14-1.73,0.07c0,0,0,0-0.43-0.03
			c-0.45-0.03-0.45-0.03-0.45-0.03c-0.5,0.02-1.12,0.08-1.38,0.15c-0.26,0.07-1.03,0.11-1.43,0.27c0,0,0,0-0.47-0.15
			c-0.39-0.12-0.89-0.03-1.34-0.03s-0.45,0-0.45,0c-0.5,0.01-1.11,0.1-1.37,0.2c0,0,0,0-0.23,0s-0.23,0-0.23,0
			c-0.25-0.1-1.34-0.16-2.41-0.14s-4.04,0.32-4.22,0.55c0,0,0,0-0.32-0.32c-0.07-0.07-0.51,0.11-0.78,0.14
			c-0.27,0.03-0.27,0.03-0.27,0.03c-0.3,0-0.75-0.14-1.01-0.3c-0.26-0.16-1.19,0.27-1.48,0.27s-1.32,0-1.62,0
			c-0.3,0-1.36,0.07-1.7,0.14c0,0,0,0-0.31,0c-0.29,0-0.59-0.13-0.87-0.12c-0.56,0.03-0.56,0.03-0.56,0.03
			c-0.61-0.02-1.55-0.03-2.08-0.02s-2.12,0.24-2.45,0.17c0,0,0,0-0.3-0.01c-0.43-0.02-0.43-0.02-0.43-0.02
			c-0.47,0.05-1.06,0.05-1.3,0c-0.24-0.05-1.06,0.28-1.38,0.31s-1.51-0.01-1.88,0s-1.98,0.01-2.75,0.06s-3.46,0.13-4.26,0.14
			c-0.79,0.01-3.02,0.04-3.18,0.12c-0.16,0.08-0.9-0.13-1.11-0.15c-0.21-0.03-1,0.26-1.38,0.28s-1.9-0.01-2.52,0
			s-2.74-0.01-3.34,0.06s-3.16,0.12-4.35,0.12c0,0,0,0-1.08,0c-1.13,0-1.13,0-1.13,0c-1.24,0-2.52,0-2.85,0.01c0,0,0,0-0.24,0.2
			c-0.23,0.19-0.43-0.42-0.75-0.04c-0.06,0.08-0.06,0.08-0.06,0.08c-0.29-0.05-0.71-0.02-0.93,0.06s-1.07-0.21-1.57-0.1
			c0,0,0,0-0.46,0c-3.52,0.01-3.52,0.01-3.52,0.01c-3.87,0-7.44-0.08-7.93-0.17c0,0,0,0-0.38,0.34c-0.06,0.05-0.06,0.05-0.06,0.05
			c-0.16-0.02-0.52-0.07-0.81-0.11c-0.28-0.04-1.11-0.03-1.2,0.05c-0.1,0.08-0.53-0.1-0.65-0.05c-0.12,0.05-0.69,0.08-0.97,0.06
			c0,0,0,0-0.26-0.03l-1.23,0.07c-0.27,0.01-0.27,0.01-0.27,0.01c-0.29,0-0.58-0.07-0.64-0.16c-0.06-0.09-0.61,0.09-0.87,0.1
			c0,0,0,0-0.24-0.03c-0.12-0.01-0.27-0.14-0.33-0.12c-0.92,0.41-0.92,0.41-0.92,0.41c-1.07-0.12-2.84-0.21-3.93-0.2c0,0,0,0-0.99,0
			c-0.63,0-1.26,0-1.89,0c-0.59,0-0.59,0-0.59,0c-0.64,0.02-1.41-0.01-1.72-0.06c-0.31-0.05-1.4,0.4-1.88,0.56c0,0,0,0-0.32-0.45
			c-0.04-0.05-0.29-0.08-0.37-0.04c-0.45,0.26-0.45,0.26-0.45,0.26c-0.51-0.11-1.34-0.15-1.86-0.09c0,0,0,0-0.47,0.04
			c-0.54,0.04-1.08,0.01-1.62,0.01c-0.5,0-0.99,0-1.49,0c-0.54,0-1.08,0-1.62,0c-0.5,0-0.99,0-1.49,0c-0.54,0-1.08,0-1.62,0
			c-0.5,0-0.5,0-0.5,0c-0.54,0.01-1.33-0.04-1.74-0.1c-0.41-0.06-1.58,0.26-1.73,0.2c-0.15-0.05-1.07-0.12-1.71-0.15
			s-2.49,0.23-2.71,0.22c-0.23-0.01-0.93-0.02-1.09-0.12c-0.16-0.1-0.9,0.15-1.12,0.18c-0.21,0.03-0.91-0.19-1.19-0.12
			c-0.27,0.07-1.22,0.12-1.48,0.15c-0.26,0.03-1.11-0.19-1.3-0.15c-0.19,0.04-1.12,0.08-1.62,0.08c-0.5,0-2.52-0.05-3.39-0.13
			c0,0,0,0-0.74,0.36c-0.13,0.06-0.13,0.06-0.13,0.06c-0.21-0.04-0.74-0.06-1.18-0.04c0,0,0,0-0.28-0.14
			c-0.46-0.23-0.46-0.23-0.46-0.23c-0.33,0.18-0.85,0.28-1.14,0.24c0,0,0,0-0.33,0.1c-0.36,0.1-0.36,0.1-0.36,0.1
			c-0.47-0.05-1.01-0.06-1.21-0.02c-0.2,0.03-1.65-0.28-2.89-0.36c0,0,0,0-1.03,0.49c-0.37,0.18-0.37,0.18-0.37,0.18
			c-0.41-0.08-0.97-0.15-1.24-0.14s-1.21,0.01-1.48,0.03c-0.27,0.02-0.9-0.1-1.01-0.07c-0.11,0.04-0.73,0.05-1.08,0.04
			c-0.35-0.01-1.5-0.03-1.78-0.05c-0.29-0.03-1.14,0.04-1.38-0.02s-0.8,0.24-0.87,0.18c-0.07-0.06-0.4-0.21-0.49-0.13
			c-0.09,0.08-0.65,0.23-0.94,0.23c0,0,0,0-0.27,0c-0.5,0-0.99,0-1.49,0c-0.27,0-0.27,0-0.27,0c-0.12-0.18-0.27-0.32-0.31-0.32
			s-0.19,0.08-0.21,0.17c-0.02,0.1-0.72,0.09-1.19,0.03c0,0,0,0-0.43,0c-0.33,0-0.33,0-0.33,0c-0.39-0.01-0.65-0.03-0.58-0.06
			s0.22-0.2,0.1-0.33c-0.11-0.13-0.18-0.63-0.13-0.79c0.05-0.16,0.09-0.64-0.07-0.64c-0.16,0-0.52,0.05-0.49,0.11
			s0.05,0.24-0.03,0.26c-0.08,0.02-0.33-0.1-0.47-0.21c-0.14-0.11-0.85-0.36-0.99-0.49s-0.39-0.66-0.12-0.72
			c0.28-0.06,0.59,0.63,0.78,0.77c0,0,0,0,0.23,0c0.08,0,0.18-0.11,0.23-0.19c0.03-0.04,0.03-0.04,0.03-0.04
			c-0.05-0.08-0.15-0.13-0.22-0.1c-0.07,0.02-0.3,0.02-0.3-0.08c0-0.1,0.23-0.43,0.51-0.49c0.28-0.07,1.08-0.37,1.08-0.5
			c0-0.13,0.1-0.55,0.22-0.4s0.6,0.39,0.79,0.21c0,0,0,0,0.06-0.17c0.09-0.22,0.14-0.17,0.32-0.07c0.13,0.07,0.13,0.07,0.13,0.07
			c0.2,0.01,0.74,0.02,1.19,0.02s1.54-0.36,1.44-0.4c-0.1-0.04,0.24-0.29,0.98-0.47c0,0,0,0,0.8,0.29c0.15,0.06,0.31,0.11,0.47,0.13
			c0.12,0.01,0.12,0.01,0.12,0.01c0.2-0.05,0.26-0.21,0.15-0.34c-0.12-0.13-0.31-0.51-0.17-0.55c0,0,0,0,0.12,0.01
			c0.14,0.02,0.31,0.16,0.38,0.12c0.45-0.22,0.45-0.22,0.45-0.22c0.28,0.26,0.59,0.48,0.7,0.49c0.11,0.01,0.55-0.01,0.45-0.11
			s0-0.33,0.22-0.5c0.22-0.17,1.05-0.2,1.2-0.19c0.15,0.02,0.78-0.02,1,0.01c0.23,0.03,0.9-0.02,1.21,0.06
			c0.31,0.09,0.94-0.48,1.11-0.46c0.17,0.02,0.49,0.34,0.52,0.38c0.03,0.04,0.16,0.09,0.21,0.02c0,0,0,0,0-0.06
			c0.01-0.6,0.01-0.6,0.01-0.6c0.52,0.09,1.23,0.28,1.56,0.43c0,0,0,0,0.42-0.2c0.38-0.18,0.38-0.18,0.38-0.18
			c0.53-0.06,1.13-0.17,1.35-0.26c0.22-0.08,0.74,0.28,0.84,0.24c0,0,0,0,0.03-0.05c0.06-0.1,0.06-0.1,0.06-0.1
			c0.12-0.03,0.43-0.01,0.71,0.06c0,0,0,0,0.25,0c0.37,0,0.37,0,0.37,0c0.39-0.08,0.83-0.17,0.99-0.2s0.86-0.06,1.16-0.09
			c0.3-0.03,1.36-0.09,1.68-0.05c0.32,0.05,1.35-0.27,1.67-0.3c0.31-0.03,1.22,0.12,1.37,0.03c0.15-0.09,0.72,0.09,0.86,0
			c0.14-0.09,0.63,0.09,0.72,0.02c0.09-0.07,0.41-0.2,0.52-0.12c0.1,0.08,0.51,0.24,0.69,0.19c0.18-0.05,0.89-0.09,1.18-0.07
			c0.28,0.02,1.13-0.06,1.34-0.05c0.21,0.02,0.88-0.06,1.04-0.12s0.79-0.14,1.08-0.19s1.16,0.33,1.34,0.39
			c0.18,0.06,0.4-0.41,0.5-0.45c0,0,0,0,0.05,0.02c0.42,0.19,0.42,0.19,0.42,0.19c0.43-0.14,0.82-0.27,0.86-0.29c0,0,0,0,0.03,0.01
			c0.24,0.07,0.5,0.24,0.69,0.19c0.23-0.05,0.23-0.05,0.23-0.05c0.2,0.04,0.46,0.02,0.58-0.06c0.12-0.07,0.69-0.01,0.95,0.08
			c0,0,0,0,0.24,0.04c0.16,0.03,0.16,0.03,0.16,0.03c0.19-0.03,0.56-0.08,0.82-0.1c0.26-0.02,1.2,0,1.54,0.17c0,0,0,0,0.4-0.29
			c0.23-0.17,0.7,0.11,1-0.16c0.03-0.03,0.24,0.1,0.38,0.14c0.6,0.14,0.6,0.14,0.6,0.14c0.66-0.08,1.33-0.22,1.48-0.32
			c0.15-0.1,0.7,0.08,0.82-0.04c0.12-0.12,0.6,0.18,0.67,0.21c0.08,0.03,0.44,0.05,0.71,0.1c0.27,0.05,1.27-0.19,1.75-0.23
			c0,0,0,0,0.35,0.29c0.05,0.04,0.05,0.04,0.05,0.04c0.15,0.03,0.37-0.05,0.49-0.16s0.45-0.21,0.65-0.24
			c0.2-0.03,1.19,0.05,1.72,0.14c0,0,0,0,0.42-0.36c0.11-0.09,0.47,0.04,0.65-0.03c0.42-0.16,0.42-0.16,0.42-0.16
			c0.36,0.17,0.78,0.32,0.92,0.34c0.15,0.02,0.7-0.09,0.9-0.03c0,0,0,0,0.18,0.08c0.23,0.11,0.34-0.42,0.64-0.08
			c0.03,0.03,0.33-0.13,0.51-0.14c0.25,0,0.25,0,0.25,0c0.27,0.06,0.58,0.14,0.67,0.16s0.69-0.04,1.05-0.02
			c0.36,0.02,1.3-0.32,1.4-0.28s0.58,0.27,0.83,0.44c0,0,0,0,0.25-0.34c0.38-0.52,0.38-0.52,0.38-0.52
			c0.56,0.22,1.27,0.44,1.59,0.51s1.37-0.19,1.61-0.28s0.91-0.1,1.15-0.15c0,0,0,0,0.16,0.09c0.17,0.1,0.17,0.1,0.17,0.1
			c0.15,0.16,0.43,0.16,0.63,0c0,0,0,0,0.16-0.13c0.03-0.02,0.03-0.02,0.03-0.02c0.1-0.03,0.27,0.01,0.39,0.09
			c0.12,0.08,0.55,0.23,0.67,0.14s1.15-0.09,1.35-0.04c0.2,0.05,0.68,0.02,0.87,0.06c0.2,0.04,0.64-0.06,0.8-0.05
			c0.16,0.01,0.75-0.06,0.96-0.16c0.21-0.1,1.09,0.2,1.51,0.26c0,0,0,0,0.27-0.32c0.03-0.03,0.17-0.01,0.26,0
			c0.55,0.07,0.55,0.07,0.55,0.07c0.6,0.07,1.33,0.02,1.61-0.11c0.28-0.13,1.33,0.23,1.68,0.22c0,0,0,0,0.29-0.06
			c0.27-0.06,0.27-0.06,0.27-0.06c0.3-0.01,0.78-0.07,1.07-0.13s1.07,0.29,1.17,0.31c0,0,0,0,0.07-0.03
			c0.79-0.29,0.79-0.29,0.79-0.29c0.92,0.04,1.86,0.07,2.09,0.07s1.09,0.06,1.45,0.28c0,0,0,0,0.31-0.46c0.14-0.2,0.14-0.2,0.14-0.2
			c0.38,0.1,0.79,0.27,0.9,0.38s0.69-0.18,0.85-0.21s0.65,0.2,0.81,0.22c0,0,0,0,0.07-0.05c0.38-0.28,0.38-0.28,0.38-0.28
			c0.37,0.16,0.88,0.33,1.14,0.37c0.26,0.04,1-0.13,1.18-0.21s0.8,0.09,0.9,0.06s0.43-0.18,0.54-0.27c0.1-0.09,0.5,0.06,0.6-0.05
			c0,0,0,0,0.3,0.12c0.34,0.14,0.34,0.14,0.34,0.14c0.5-0.08,1.17-0.2,1.49-0.27c0.32-0.07,1.16,0.11,1.31,0.08s0.73,0.04,0.99,0.11
			c0,0,0,0,0.25,0.02c0.09,0.01,0.09,0.01,0.09,0.01c0.14-0.13,0.28-0.14,0.31-0.01s0.3,0.45,0.49,0.35c0.2-0.1,0.82-0.39,0.98-0.46
			c0.16-0.07,1.29-0.08,1.49-0.04s0.84-0.23,1.09-0.26c0.25-0.02,1.09,0.01,1.31,0.09s1.3-0.03,1.86-0.04c0,0,0,0,0.35-0.18
			c0.31-0.16,0.31-0.16,0.31-0.16c0.2,0.13,0.43,0.3,0.53,0.37s0.94-0.06,1.37-0.18c0.43-0.11,1.76-0.08,1.94-0.03
			c0.18,0.06,0.85,0.06,1.1,0.02s1.13-0.1,1.39-0.08s0.96-0.15,1.1-0.21c0.14-0.06,0.55,0.16,0.6,0.18c0,0,0,0,0.03-0.01
			c0.24-0.07,0.46-0.19,0.7-0.21c0.21-0.02,0.45,0.14,0.65,0.11c0.31-0.04,0.31-0.04,0.31-0.04c0.35-0.03,0.81-0.08,1.03-0.13
			c0.22-0.05,0.74,0.18,0.79,0.09c0,0,0,0,0.07-0.07c0.05-0.05,0.05-0.05,0.05-0.05c0.09-0.03,0.45,0,0.79,0.06
			c0.34,0.06,1.86-0.11,2.12-0.05c0,0,0,0,0.21,0.09c0.26,0.11,0.26,0.11,0.26,0.11c0.21-0.12,0.59-0.15,0.83-0.08
			c0,0,0,0,0.17-0.05c0.31-0.09,0.31-0.09,0.31-0.09c0.3-0.18,0.7-0.28,0.87-0.22c0.18,0.06,0.84,0.04,1.06-0.03
			s0.67-0.05,0.85-0.08c0.18-0.03,0.7,0.05,0.86,0.1s0.63-0.05,0.69,0.02c0.06,0.07,0.46,0.19,0.74,0.12
			c0.28-0.08,1.92-0.04,2.48-0.06s1.62-0.3,1.83-0.35c0,0,0,0,0.28,0.06c0.54,0.12,0.54,0.12,0.54,0.12
			c0.64-0.01,1.37-0.02,1.61-0.02c0,0,0,0,0.24-0.09c0.31-0.12,0.31-0.12,0.31-0.12c0.41-0.01,0.92,0.02,1.12,0.07
			c0.2,0.05,0.91-0.05,1.09-0.02c0,0,0,0,0.16,0.03c0.15,0.03,0.15,0.03,0.15,0.03c0.16,0.03,0.72,0,1.24-0.06c0,0,0,0,0.46-0.07
			c0.39-0.06,0.39-0.06,0.39-0.06c0.44-0.05,0.83-0.1,0.87-0.1c0.04,0,0.31,0.06,0.55,0.1c0.24,0.04,1.01,0.08,1.21,0.14
			s0.7,0.25,0.77,0.15s0.42-0.22,0.56-0.22c0.15-0.01,0.68-0.24,0.98-0.26c0.3-0.02,1.51-0.03,1.99-0.06
			c0.48-0.02,1.93,0.1,2.15,0.14c0.22,0.04,0.85-0.21,1-0.17s0.42,0.04,0.52,0.06c0.1,0.03,0.79-0.09,1.37-0.21c0,0,0,0,0.53,0.05
			c0.39,0.04,0.39,0.04,0.39,0.04c0.32-0.14,0.83-0.17,1.14-0.08c0,0,0,0,0.28,0.02c0.29,0.02,0.29,0.02,0.29,0.02
			c0.32-0.09,0.75-0.06,0.96,0.08c0.21,0.14,1.12-0.35,1.6-0.43c0,0,0,0,0.4,0.26c0.03,0.02,0.18-0.03,0.23-0.08
			c0.07-0.08,0.07-0.08,0.07-0.08c0.04-0.11,0.21-0.23,0.37-0.28c0.16-0.05,0.72,0.16,0.93,0.22c0.21,0.05,0.99,0.03,1.19,0.08
			c0.2,0.05,0.64-0.03,0.8-0.05s0.85,0.06,1.13,0.11c0.29,0.05,1.29-0.16,1.61-0.1c0,0,0,0,0.13-0.09c0.41-0.3,0.55,0.21,0.8,0.13
			c0.26-0.09,0.26-0.09,0.26-0.09c0.25-0.18,0.64-0.35,0.86-0.39c0.22-0.04,1.06,0.05,1.27,0.09s0.99,0.02,1.2-0.04
			c0.21-0.07,0.96,0.06,1.16,0.14c0.2,0.08,0.97,0,1.37-0.08c0,0,0,0,0.42,0.14c0.29,0.1,0.72,0.09,0.95-0.23l0.86-0.13
			c0.9,0.29,1.83,0.23,2.71,0.04c0.34-0.07,0.65,0.4,0.99-0.05c0.1-0.14,0.67-0.07,1.02-0.05c0.2,0.01,0.2,0.01,0.2,0.01
			c0.21,0.09,0.46,0.13,0.56,0.1c0.1-0.04,0.35-0.14,0.55-0.25c0.2-0.11,0.75,0.29,0.93,0.26c0.19-0.02,0.64-0.21,0.73-0.23
			s0.5,0.18,0.7,0.29c0,0,0,0,0.19,0c0.19,0,0.37-0.15,0.57-0.2c0.33-0.08,0.33-0.08,0.33-0.08c0.34,0.11,0.7,0.22,0.8,0.24
			c0.1,0.03,0.35-0.06,0.47-0.12c0.12-0.06,0.55,0.08,0.65,0.06c0,0,0,0,0.08-0.05c0.11-0.06,0.2-0.22,0.29-0.22
			c0.23,0.02,0.46,0.16,0.68,0.15c0.28-0.02,0.55-0.17,0.84-0.2c0.25-0.03,0.25-0.03,0.25-0.03c0.27,0.05,0.68,0.02,0.89-0.06
			c0,0,0,0,0.22,0.15c0.14,0.1,0.14,0.1,0.14,0.1c0.24,0.02,0.73,0.05,1.07,0.08c0.35,0.03,1.4-0.18,1.63-0.08
			c0.23,0.1,1.5-0.04,2.31,0.11c0,0,0,0,0.76-0.28c0.22-0.08,0.58-0.09,0.79,0c0.37,0.15,0.37,0.15,0.37,0.15
			c0.35-0.09,0.8-0.26,1.01-0.38c0,0,0,0,0.19,0c0.19,0,0.38,0.13,0.56,0.22c0.1,0.05,0.1,0.05,0.1,0.05
			c0.1,0.07,0.71,0.16,1.37,0.21c0.66,0.05,2.31-0.45,2.35-0.43s0.12,0.11,0.18,0.15c0.06,0.04,0.57-0.01,0.86-0.05
			c0.3-0.04,1.31-0.12,1.59-0.09c0.27,0.03,1.17,0.3,1.4,0.39c0.23,0.09,0.95-0.14,1.13-0.02c0.18,0.12,0.99-0.29,1.35-0.44
			c0,0,0,0,0.41,0.32c0.18,0.14,0.18,0.14,0.18,0.14c0.54-0.13,1.39-0.25,1.89-0.26c0,0,0,0,0.45,0.02
			c0.47,0.02,0.47,0.02,0.47,0.02c0.5,0.1,1.18,0.03,1.51-0.16c0,0,0,0,0.43,0.3c0.34,0.23,0.72-0.43,1.17-0.11
			c0.38,0.27,0.7,0.21,1.03-0.06c0.02-0.02,0.09-0.01,0.13,0c0.31,0.11,0.31,0.11,0.31,0.11c0.34,0.04,0.72,0.1,0.85,0.13
			s0.74-0.17,1.03-0.24c0,0,0,0,0.25,0.01c0.52,0.02,0.52,0.02,0.52,0.02c0.57-0.01,1.51-0.03,2.1-0.05c0,0,0,0,0.54,0.02
			c0.34,0.01,0.34,0.01,0.34,0.01c0.37,0.09,0.82,0.18,1.01,0.21c0.19,0.03,0.65-0.11,0.79-0.15c0.15-0.04,0.61,0.15,0.74,0.17
			c0,0,0,0,0.02-0.03c0.28-0.41,0.28-0.41,0.28-0.41C280.85,68.21,281.78,68.32,281.93,68.44z"/>
	</g>
</g>
</svg>
